<svg xmlns="http://www.w3.org/2000/svg" xmlns:xlink="http://www.w3.org/1999/xlink" width="1080" zoomAndPan="magnify" viewBox="0 0 810 809.999993" height="1080" preserveAspectRatio="xMidYMid meet" version="1.0"><defs><g/><clipPath id="f34d9d64f9"><path d="M 401 123.183594 L 409 123.183594 L 409 173 L 401 173 Z M 401 123.183594 " clip-rule="nonzero"/></clipPath><clipPath id="39d87105a9"><path d="M 243 282 L 293 282 L 293 289 L 243 289 Z M 243 282 " clip-rule="nonzero"/></clipPath><clipPath id="11acf223a4"><path d="M 401 397 L 409 397 L 409 447.183594 L 401 447.183594 Z M 401 397 " clip-rule="nonzero"/></clipPath></defs><path fill="#fbc810" d="M 305.78125 285.179688 C 305.78125 230.414062 350.171875 186.019531 404.9375 186.019531 C 459.703125 186.019531 504.097656 230.414062 504.097656 285.179688 C 504.097656 339.941406 459.703125 384.335938 404.9375 384.335938 C 350.171875 384.335938 305.78125 339.941406 305.78125 285.179688 " fill-opacity="1" fill-rule="nonzero"/><path fill="#f7dff1" d="M 404.9375 384.335938 C 404.910156 384.335938 404.894531 384.335938 404.863281 384.335938 C 404.886719 384.335938 404.910156 384.335938 404.9375 384.335938 C 459.703125 384.335938 504.097656 339.941406 504.097656 285.179688 C 504.097656 339.941406 459.703125 384.335938 404.9375 384.335938 M 404.84375 384.335938 C 404.824219 384.335938 404.804688 384.335938 404.789062 384.335938 C 404.8125 384.335938 404.824219 384.335938 404.84375 384.335938 M 404.769531 384.335938 C 404.746094 384.335938 404.726562 384.335938 404.703125 384.335938 C 404.726562 384.335938 404.746094 384.335938 404.769531 384.335938 M 404.695312 384.335938 C 404.675781 384.335938 404.644531 384.335938 404.625 384.335938 C 404.644531 384.335938 404.671875 384.335938 404.695312 384.335938 M 404.601562 384.335938 C 404.582031 384.335938 404.566406 384.335938 404.546875 384.335938 C 404.570312 384.335938 404.582031 384.335938 404.601562 384.335938 M 404.527344 384.335938 C 404.507812 384.335938 404.492188 384.335938 404.464844 384.335938 C 404.492188 384.335938 404.507812 384.335938 404.527344 384.335938 M 404.453125 384.335938 C 404.433594 384.335938 404.402344 384.335938 404.386719 384.335938 C 404.402344 384.335938 404.429688 384.335938 404.453125 384.335938 M 404.359375 384.335938 C 404.339844 384.335938 404.328125 384.335938 404.3125 384.335938 C 404.328125 384.335938 404.339844 384.335938 404.359375 384.335938 M 404.28125 384.335938 C 404.265625 384.335938 404.25 384.335938 404.238281 384.335938 C 404.253906 384.335938 404.265625 384.335938 404.28125 384.335938 M 404.210938 384.335938 C 404.1875 384.335938 404.167969 384.335938 404.144531 384.335938 C 404.160156 384.335938 404.191406 384.335938 404.210938 384.335938 M 404.117188 384.335938 C 404.101562 384.335938 404.085938 384.335938 404.070312 384.335938 C 404.085938 384.335938 404.101562 384.335938 404.117188 384.335938 M 404.039062 384.328125 C 404.027344 384.328125 404.011719 384.328125 404 384.328125 C 404.011719 384.328125 404.027344 384.328125 404.039062 384.328125 M 403.96875 384.328125 C 403.945312 384.328125 403.925781 384.328125 403.90625 384.328125 C 403.925781 384.328125 403.945312 384.328125 403.96875 384.328125 M 403.871094 384.328125 C 403.859375 384.328125 403.847656 384.328125 403.832031 384.328125 C 403.847656 384.328125 403.859375 384.328125 403.871094 384.328125 M 403.796875 384.328125 C 403.785156 384.328125 403.773438 384.328125 403.765625 384.328125 C 403.773438 384.328125 403.785156 384.328125 403.796875 384.328125 M 403.722656 384.328125 C 403.714844 384.328125 403.710938 384.328125 403.695312 384.328125 C 403.710938 384.328125 403.714844 384.328125 403.722656 384.328125 M 403.617188 384.328125 C 403.605469 384.328125 403.605469 384.328125 403.59375 384.328125 C 403.597656 384.328125 403.609375 384.328125 403.617188 384.328125 M 403.546875 384.328125 C 403.542969 384.328125 403.53125 384.328125 403.523438 384.328125 C 403.53125 384.328125 403.542969 384.328125 403.546875 384.328125 M 403.480469 384.324219 C 403.472656 384.324219 403.46875 384.324219 403.460938 384.324219 C 403.46875 384.324219 403.472656 384.324219 403.480469 384.324219 M 403.300781 384.324219 C 403.292969 384.324219 403.292969 384.324219 403.289062 384.324219 C 403.292969 384.324219 403.292969 384.324219 403.300781 384.324219 M 504.097656 285.179688 C 504.097656 285.15625 504.097656 285.132812 504.097656 285.105469 C 504.097656 285.132812 504.097656 285.148438 504.097656 285.179688 M 504.097656 285.085938 C 504.097656 285.0625 504.097656 285.050781 504.097656 285.03125 C 504.097656 285.050781 504.097656 285.070312 504.097656 285.085938 M 504.097656 285.011719 C 504.097656 284.988281 504.097656 284.964844 504.097656 284.9375 C 504.097656 284.964844 504.097656 284.988281 504.097656 285.011719 M 504.097656 284.921875 C 504.097656 284.90625 504.097656 284.882812 504.097656 284.871094 C 504.097656 284.890625 504.097656 284.902344 504.097656 284.921875 M 504.097656 284.839844 C 504.097656 284.828125 504.097656 284.816406 504.097656 284.800781 C 504.097656 284.816406 504.097656 284.828125 504.097656 284.839844 M 504.097656 284.753906 C 504.097656 284.734375 504.097656 284.726562 504.097656 284.710938 C 504.097656 284.722656 504.097656 284.742188 504.097656 284.753906 M 504.09375 284.667969 C 504.09375 284.660156 504.09375 284.652344 504.09375 284.648438 C 504.09375 284.652344 504.09375 284.660156 504.09375 284.667969 " fill-opacity="1" fill-rule="nonzero"/><path fill="#f1ae0d" d="M 404.9375 384.335938 C 404.910156 384.335938 404.886719 384.335938 404.863281 384.335938 C 404.863281 384.335938 404.851562 384.335938 404.84375 384.335938 C 404.824219 384.335938 404.8125 384.335938 404.789062 384.335938 C 404.78125 384.335938 404.777344 384.335938 404.769531 384.335938 C 404.746094 384.335938 404.726562 384.335938 404.703125 384.335938 C 404.703125 384.335938 404.703125 384.335938 404.695312 384.335938 C 404.671875 384.335938 404.644531 384.335938 404.625 384.335938 C 404.621094 384.335938 404.609375 384.335938 404.601562 384.335938 C 404.582031 384.335938 404.570312 384.335938 404.546875 384.335938 C 404.539062 384.335938 404.535156 384.335938 404.527344 384.335938 C 404.507812 384.335938 404.492188 384.335938 404.464844 384.335938 C 404.464844 384.335938 404.460938 384.335938 404.453125 384.335938 C 404.429688 384.335938 404.402344 384.335938 404.386719 384.335938 C 404.371094 384.335938 404.367188 384.335938 404.359375 384.335938 C 404.339844 384.335938 404.328125 384.335938 404.3125 384.335938 C 404.304688 384.335938 404.292969 384.335938 404.28125 384.335938 C 404.265625 384.335938 404.253906 384.335938 404.238281 384.335938 C 404.230469 384.335938 404.21875 384.335938 404.210938 384.335938 C 404.191406 384.335938 404.160156 384.335938 404.144531 384.335938 C 404.132812 384.335938 404.125 384.335938 404.117188 384.335938 C 404.101562 384.335938 404.085938 384.335938 404.070312 384.335938 C 404.0625 384.328125 404.050781 384.328125 404.039062 384.328125 C 404.027344 384.328125 404.011719 384.328125 404 384.328125 C 403.988281 384.328125 403.976562 384.328125 403.96875 384.328125 C 403.945312 384.328125 403.925781 384.328125 403.90625 384.328125 C 403.894531 384.328125 403.882812 384.328125 403.871094 384.328125 C 403.859375 384.328125 403.847656 384.328125 403.832031 384.328125 C 403.820312 384.328125 403.808594 384.328125 403.796875 384.328125 C 403.785156 384.328125 403.773438 384.328125 403.765625 384.328125 C 403.746094 384.328125 403.734375 384.328125 403.722656 384.328125 C 403.714844 384.328125 403.710938 384.328125 403.695312 384.328125 C 403.667969 384.328125 403.640625 384.328125 403.617188 384.328125 C 403.609375 384.328125 403.597656 384.328125 403.59375 384.328125 C 403.578125 384.328125 403.566406 384.328125 403.546875 384.328125 C 403.542969 384.328125 403.53125 384.328125 403.523438 384.328125 C 403.511719 384.324219 403.5 384.324219 403.480469 384.324219 C 403.472656 384.324219 403.46875 384.324219 403.460938 384.324219 C 403.410156 384.324219 403.351562 384.324219 403.300781 384.324219 C 403.292969 384.324219 403.292969 384.324219 403.289062 384.324219 C 403.269531 384.324219 403.25 384.324219 403.230469 384.324219 C 362.3125 383.628906 327.449219 358.144531 312.972656 322.246094 C 330.628906 349.550781 361.328125 367.644531 396.273438 367.644531 C 451.039062 367.644531 495.425781 323.25 495.425781 268.484375 C 495.425781 255.375 492.859375 242.875 488.238281 231.417969 C 498.167969 246.773438 503.992188 265.023438 504.09375 284.648438 C 504.09375 284.652344 504.09375 284.660156 504.09375 284.667969 C 504.09375 284.679688 504.097656 284.695312 504.097656 284.710938 C 504.097656 284.726562 504.097656 284.734375 504.097656 284.753906 C 504.097656 284.773438 504.097656 284.785156 504.097656 284.800781 C 504.097656 284.816406 504.097656 284.828125 504.097656 284.839844 C 504.097656 284.851562 504.097656 284.863281 504.097656 284.871094 C 504.097656 284.882812 504.097656 284.90625 504.097656 284.921875 C 504.097656 284.925781 504.097656 284.933594 504.097656 284.9375 C 504.097656 284.964844 504.097656 284.988281 504.097656 285.011719 C 504.097656 285.019531 504.097656 285.027344 504.097656 285.03125 C 504.097656 285.050781 504.097656 285.0625 504.097656 285.085938 C 504.097656 285.09375 504.097656 285.101562 504.097656 285.105469 C 504.097656 285.132812 504.097656 285.15625 504.097656 285.179688 C 504.097656 339.941406 459.703125 384.335938 404.9375 384.335938 " fill-opacity="1" fill-rule="nonzero"/><path fill="#5c363c" d="M 447.183594 245.507812 C 445.488281 245.507812 444.125 246.871094 444.125 248.5625 L 444.125 248.648438 C 444.125 251.738281 441.609375 254.253906 438.351562 254.253906 C 435.261719 254.253906 432.753906 251.738281 432.753906 248.648438 L 432.753906 248.5625 C 432.753906 246.871094 431.382812 245.507812 429.699219 245.507812 C 428.003906 245.507812 426.640625 246.871094 426.640625 248.5625 L 426.640625 248.648438 C 426.640625 255.109375 431.890625 260.359375 438.523438 260.359375 C 444.980469 260.359375 450.238281 255.109375 450.238281 248.648438 L 450.238281 248.5625 C 450.238281 246.871094 448.867188 245.507812 447.183594 245.507812 " fill-opacity="1" fill-rule="nonzero"/><path fill="#5c363c" d="M 367.679688 245.507812 C 365.988281 245.507812 364.625 246.871094 364.625 248.5625 L 364.625 248.648438 C 364.625 251.738281 362.113281 254.253906 358.847656 254.253906 C 355.761719 254.253906 353.25 251.738281 353.25 248.648438 L 353.25 248.5625 C 353.25 246.871094 351.886719 245.507812 350.195312 245.507812 C 348.511719 245.507812 347.140625 246.871094 347.140625 248.5625 L 347.140625 248.648438 C 347.140625 255.109375 352.398438 260.359375 359.027344 260.359375 C 365.488281 260.359375 370.738281 255.109375 370.738281 248.648438 L 370.738281 248.5625 C 370.738281 246.871094 369.367188 245.507812 367.679688 245.507812 " fill-opacity="1" fill-rule="nonzero"/><path fill="#f1ae0d" d="M 352.613281 276.507812 C 345.558594 276.507812 339.847656 273.3125 339.847656 269.375 C 339.847656 265.425781 345.558594 262.234375 352.613281 262.234375 C 359.660156 262.234375 365.375 265.425781 365.375 269.375 C 365.375 273.3125 359.660156 276.507812 352.613281 276.507812 " fill-opacity="1" fill-rule="nonzero"/><path fill="#f1ae0d" d="M 441.914062 276.507812 C 434.859375 276.507812 429.144531 273.3125 429.144531 269.375 C 429.144531 265.425781 434.859375 262.234375 441.914062 262.234375 C 448.960938 262.234375 454.683594 265.425781 454.683594 269.375 C 454.683594 273.3125 448.960938 276.507812 441.914062 276.507812 " fill-opacity="1" fill-rule="nonzero"/><path fill="#5c363c" d="M 396.359375 286.886719 C 395.167969 286.886719 394.003906 286.710938 392.898438 286.371094 C 388.28125 285.039062 384.148438 280.964844 381 274.613281 C 380.40625 273.410156 379.855469 272.128906 379.351562 270.800781 C 378.738281 269.191406 379.554688 267.386719 381.167969 266.777344 C 382.773438 266.171875 384.582031 266.984375 385.191406 268.59375 C 385.617188 269.734375 386.089844 270.832031 386.597656 271.847656 C 388.910156 276.515625 391.777344 279.554688 394.683594 280.390625 C 395.660156 280.6875 396.636719 280.710938 397.5625 280.511719 C 398.011719 280.421875 398.398438 280.304688 398.769531 280.148438 C 401.988281 278.804688 405.121094 274.75 407.367188 269.027344 C 408 267.421875 409.808594 266.636719 411.414062 267.269531 C 413.019531 267.894531 413.804688 269.710938 413.179688 271.308594 C 410.230469 278.804688 406.082031 283.847656 401.179688 285.90625 C 400.429688 286.222656 399.644531 286.457031 398.84375 286.625 C 398.070312 286.792969 397.21875 286.886719 396.359375 286.886719 " fill-opacity="1" fill-rule="nonzero"/><g clip-path="url(#f34d9d64f9)"><path fill="#fbc810" d="M 404.9375 172.8125 C 403.214844 172.8125 401.820312 171.410156 401.820312 169.6875 L 401.820312 126.308594 C 401.820312 124.578125 403.214844 123.183594 404.9375 123.183594 C 406.660156 123.183594 408.058594 124.578125 408.058594 126.308594 L 408.058594 169.6875 C 408.058594 171.410156 406.660156 172.8125 404.9375 172.8125 " fill-opacity="1" fill-rule="nonzero"/></g><path fill="#fbc810" d="M 347.195312 188.28125 C 346.117188 188.28125 345.070312 187.722656 344.496094 186.726562 L 322.800781 149.148438 C 321.941406 147.660156 322.449219 145.75 323.941406 144.890625 C 325.433594 144.023438 327.34375 144.535156 328.207031 146.03125 L 349.898438 183.601562 C 350.761719 185.097656 350.246094 187.003906 348.757812 187.867188 C 348.261719 188.144531 347.730469 188.28125 347.195312 188.28125 " fill-opacity="1" fill-rule="nonzero"/><path fill="#fbc810" d="M 304.921875 230.558594 C 304.394531 230.558594 303.855469 230.421875 303.363281 230.136719 L 265.792969 208.445312 C 264.296875 207.582031 263.789062 205.671875 264.644531 204.179688 C 265.507812 202.6875 267.417969 202.175781 268.910156 203.039062 L 306.480469 224.730469 C 307.976562 225.59375 308.484375 227.503906 307.628906 228.996094 C 307.050781 229.992188 306 230.558594 304.921875 230.558594 " fill-opacity="1" fill-rule="nonzero"/><g clip-path="url(#39d87105a9)"><path fill="#fbc810" d="M 289.449219 288.296875 L 246.0625 288.296875 C 244.339844 288.296875 242.945312 286.902344 242.945312 285.179688 C 242.945312 283.457031 244.339844 282.058594 246.0625 282.058594 L 289.449219 282.058594 C 291.171875 282.058594 292.574219 283.457031 292.574219 285.179688 C 292.574219 286.902344 291.171875 288.296875 289.449219 288.296875 " fill-opacity="1" fill-rule="nonzero"/></g><path fill="#fbc810" d="M 267.355469 367.738281 C 266.277344 367.738281 265.222656 367.171875 264.644531 366.175781 C 263.789062 364.683594 264.296875 362.773438 265.792969 361.910156 L 303.363281 340.21875 C 304.851562 339.355469 306.761719 339.867188 307.628906 341.359375 C 308.484375 342.851562 307.976562 344.761719 306.480469 345.625 L 268.910156 367.316406 C 268.421875 367.601562 267.882812 367.738281 267.355469 367.738281 " fill-opacity="1" fill-rule="nonzero"/><path fill="#fbc810" d="M 325.496094 425.886719 C 324.96875 425.886719 324.429688 425.75 323.941406 425.464844 C 322.449219 424.605469 321.941406 422.699219 322.800781 421.207031 L 344.496094 383.628906 C 345.355469 382.140625 347.265625 381.628906 348.757812 382.496094 C 350.246094 383.351562 350.761719 385.257812 349.898438 386.753906 L 328.207031 424.324219 C 327.628906 425.324219 326.574219 425.886719 325.496094 425.886719 " fill-opacity="1" fill-rule="nonzero"/><g clip-path="url(#11acf223a4)"><path fill="#fbc810" d="M 404.9375 447.171875 C 403.214844 447.171875 401.820312 445.777344 401.820312 444.054688 L 401.820312 400.667969 C 401.820312 398.9375 403.214844 397.542969 404.9375 397.542969 C 406.660156 397.542969 408.058594 398.9375 408.058594 400.667969 L 408.058594 444.054688 C 408.058594 445.777344 406.660156 447.171875 404.9375 447.171875 " fill-opacity="1" fill-rule="nonzero"/></g><path fill="#fbc810" d="M 484.375 425.886719 C 483.304688 425.886719 482.25 425.328125 481.671875 424.324219 L 459.980469 386.753906 C 459.121094 385.257812 459.628906 383.351562 461.121094 382.496094 C 462.609375 381.628906 464.523438 382.140625 465.386719 383.628906 L 487.078125 421.207031 C 487.941406 422.699219 487.425781 424.605469 485.9375 425.464844 C 485.441406 425.75 484.910156 425.886719 484.375 425.886719 " fill-opacity="1" fill-rule="nonzero"/><path fill="#fbc810" d="M 542.527344 367.738281 C 541.992188 367.738281 541.460938 367.601562 540.96875 367.316406 L 503.390625 345.625 C 501.898438 344.761719 501.390625 342.851562 502.25 341.359375 C 503.113281 339.867188 505.023438 339.355469 506.515625 340.21875 L 544.085938 361.910156 C 545.582031 362.773438 546.089844 364.683594 545.226562 366.175781 C 544.652344 367.171875 543.605469 367.738281 542.527344 367.738281 " fill-opacity="1" fill-rule="nonzero"/><path fill="#fbc810" d="M 563.808594 288.296875 L 520.421875 288.296875 C 518.699219 288.296875 517.304688 286.902344 517.304688 285.179688 C 517.304688 283.457031 518.699219 282.058594 520.421875 282.058594 L 563.808594 282.058594 C 565.53125 282.058594 566.933594 283.457031 566.933594 285.179688 C 566.933594 286.902344 565.53125 288.296875 563.808594 288.296875 " fill-opacity="1" fill-rule="nonzero"/><path fill="#fbc810" d="M 504.953125 230.558594 C 503.882812 230.558594 502.828125 229.992188 502.25 228.996094 C 501.390625 227.503906 501.898438 225.59375 503.390625 224.730469 L 540.96875 203.039062 C 542.457031 202.175781 544.367188 202.6875 545.226562 204.179688 C 546.089844 205.671875 545.582031 207.582031 544.085938 208.445312 L 506.515625 230.136719 C 506.019531 230.421875 505.488281 230.558594 504.953125 230.558594 " fill-opacity="1" fill-rule="nonzero"/><path fill="#fbc810" d="M 462.683594 188.28125 C 462.148438 188.28125 461.609375 188.144531 461.121094 187.867188 C 459.628906 187.003906 459.121094 185.097656 459.980469 183.601562 L 481.671875 146.03125 C 482.535156 144.535156 484.445312 144.023438 485.9375 144.890625 C 487.425781 145.75 487.941406 147.660156 487.078125 149.148438 L 465.386719 186.726562 C 464.808594 187.722656 463.753906 188.28125 462.683594 188.28125 " fill-opacity="1" fill-rule="nonzero"/><g fill="#000000" fill-opacity="1"><g transform="translate(305.934011, 525.701298)"><g><path d="M 40.660156 -15.125 C 41.039062 -15.125 41.496094 -15.046875 41.875 -15.046875 C 44.382812 -15.046875 46.964844 -15.882812 48.714844 -20.671875 C 49.929688 -23.863281 50.691406 -28.195312 50.691406 -32.679688 C 50.691406 -44.535156 45.292969 -57.910156 27.511719 -57.910156 L 27.207031 -57.910156 C 19.226562 -57.910156 12.082031 -54.71875 6.914062 -45.523438 C 3.722656 -39.824219 1.597656 -28.804688 1.597656 -16.949219 C 1.597656 4.636719 8.511719 29.03125 28.042969 29.03125 L 29.257812 29.03125 C 41.496094 28.421875 48.789062 16.035156 49.246094 4.636719 L 49.246094 4.179688 C 49.246094 -1.519531 45.371094 -5.394531 39.671875 -5.394531 C 37.847656 -5.394531 35.945312 -5.015625 33.894531 -4.179688 C 32.222656 -3.496094 30.550781 -1.214844 30.550781 0.835938 C 30.550781 2.8125 32.070312 4.636719 36.328125 4.710938 C 37.238281 4.710938 37.695312 6.230469 37.695312 8.359375 C 37.695312 13.90625 34.578125 23.9375 28.953125 24.472656 L 28.421875 24.472656 C 19.988281 24.472656 16.1875 7.066406 16.1875 -10.945312 C 16.1875 -30.171875 20.519531 -50.007812 28.5 -50.007812 L 28.574219 -50.007812 C 34.578125 -49.929688 35.109375 -42.710938 35.109375 -34.882812 L 35.109375 -29.410156 C 35.109375 -22.039062 35.566406 -15.425781 40.660156 -15.125 Z M 40.660156 -15.125 "/></g></g></g><g fill="#000000" fill-opacity="1"><g transform="translate(358.523307, 525.701298)"><g><path d="M 17.859375 17.097656 L 18.164062 17.097656 C 32.90625 17.097656 40.125 -1.0625 40.125 -18.46875 C 40.125 -34.351562 34.121094 -49.550781 22.191406 -49.855469 L 21.734375 -49.855469 C 7.523438 -49.855469 1.214844 -32.679688 1.214844 -15.730469 C 1.214844 0.683594 7.144531 16.949219 17.859375 17.097656 Z M 17.785156 -39.441406 C 22.648438 -39.289062 24.851562 -29.640625 24.851562 -19.378906 C 24.851562 -7.449219 21.886719 5.394531 16.71875 5.394531 L 16.566406 5.394531 C 11.171875 5.167969 8.816406 -4.105469 8.816406 -14.136719 C 8.816406 -26.21875 12.234375 -39.441406 17.707031 -39.441406 Z M 17.785156 -39.441406 "/></g></g></g><g fill="#000000" fill-opacity="1"><g transform="translate(400.853135, 525.701298)"><g><path d="M 17.859375 17.097656 L 18.164062 17.097656 C 32.90625 17.097656 40.125 -1.0625 40.125 -18.46875 C 40.125 -34.351562 34.121094 -49.550781 22.191406 -49.855469 L 21.734375 -49.855469 C 7.523438 -49.855469 1.214844 -32.679688 1.214844 -15.730469 C 1.214844 0.683594 7.144531 16.949219 17.859375 17.097656 Z M 17.785156 -39.441406 C 22.648438 -39.289062 24.851562 -29.640625 24.851562 -19.378906 C 24.851562 -7.449219 21.886719 5.394531 16.71875 5.394531 L 16.566406 5.394531 C 11.171875 5.167969 8.816406 -4.105469 8.816406 -14.136719 C 8.816406 -26.21875 12.234375 -39.441406 17.707031 -39.441406 Z M 17.785156 -39.441406 "/></g></g></g><g fill="#000000" fill-opacity="1"><g transform="translate(443.182963, 525.701298)"><g><path d="M 1.898438 -50.613281 C 1.671875 -47.878906 0.835938 -34.578125 0.835938 -18.921875 C 0.835938 -3.191406 1.671875 14.894531 4.863281 27.359375 C 5.777344 31.007812 9.273438 32.601562 12.3125 32.601562 C 14.972656 32.601562 17.402344 31.386719 17.480469 29.257812 C 17.632812 28.195312 17.785156 27.738281 18.164062 27.738281 C 18.316406 27.738281 18.46875 27.816406 18.621094 27.890625 C 20.898438 28.421875 23.027344 28.726562 25.078125 28.726562 C 46.207031 28.726562 58.59375 1.519531 58.59375 -22.570312 C 58.59375 -41.722656 50.765625 -58.898438 33.285156 -58.898438 L 32.984375 -58.898438 C 25.460938 -58.820312 23.789062 -56.464844 21.28125 -54.640625 C 20.824219 -58.136719 16.261719 -60.949219 11.628906 -60.949219 C 7.144531 -60.949219 2.582031 -58.214844 1.898438 -50.613281 Z M 21.507812 -47.195312 C 21.507812 -47.195312 24.472656 -50.765625 29.867188 -50.765625 L 30.777344 -50.765625 C 38.605469 -50.160156 43.167969 -34.65625 43.167969 -18.085938 C 43.167969 1.292969 36.933594 22.117188 22.191406 22.117188 C 20.140625 22.117188 18.316406 19.457031 18.316406 17.402344 C 18.316406 -1.898438 21.050781 -39.59375 21.507812 -47.195312 Z M 21.507812 -47.195312 "/></g></g></g><g fill="#000000" fill-opacity="1"><g transform="translate(216.487507, 616.251325)"><g><path d="M 51.527344 -46.207031 C 49.171875 -37.316406 43.320312 -20.214844 40.050781 -6.003906 C 37.316406 -8.96875 26.296875 -48.410156 26.21875 -48.410156 C 24.851562 -53.730469 20.292969 -56.847656 15.65625 -56.847656 C 11.246094 -56.847656 6.839844 -54.035156 5.09375 -47.5 C 3.039062 -39.976562 2.203125 -28.421875 2.203125 -16.644531 C 2.203125 0.53125 4.027344 18.164062 6.765625 24.320312 C 7.902344 26.828125 10.640625 28.421875 13.222656 28.421875 C 15.808594 28.421875 18.316406 26.902344 19.378906 23.253906 C 20.746094 18.921875 22.800781 -17.707031 22.800781 -31.007812 C 24.242188 -27.511719 25.003906 -21.660156 32.832031 0 C 34.351562 3.117188 36.554688 4.484375 38.605469 4.484375 C 40.960938 4.484375 43.167969 2.660156 43.925781 -0.304688 C 45.066406 -4.558594 55.175781 -29.105469 56.164062 -33.515625 C 55.328125 -27.664062 54.640625 -14.972656 54.640625 -2.734375 C 54.640625 8.738281 55.25 19.835938 56.769531 24.394531 C 57.453125 26.371094 60.191406 27.738281 62.851562 27.738281 C 65.128906 27.738281 67.332031 26.75 67.941406 24.167969 C 69.234375 18.390625 74.554688 -19.304688 74.554688 -37.847656 C 74.554688 -40.8125 74.402344 -43.242188 74.097656 -45.066406 C 72.730469 -53.121094 67.867188 -57.300781 62.925781 -57.300781 C 58.289062 -57.300781 53.578125 -53.652344 51.527344 -46.207031 Z M 51.527344 -46.207031 "/></g></g></g><g fill="#000000" fill-opacity="1"><g transform="translate(292.483608, 616.251325)"><g><path d="M 17.859375 17.097656 L 18.164062 17.097656 C 32.90625 17.097656 40.125 -1.0625 40.125 -18.46875 C 40.125 -34.351562 34.121094 -49.550781 22.191406 -49.855469 L 21.734375 -49.855469 C 7.523438 -49.855469 1.214844 -32.679688 1.214844 -15.730469 C 1.214844 0.683594 7.144531 16.949219 17.859375 17.097656 Z M 17.785156 -39.441406 C 22.648438 -39.289062 24.851562 -29.640625 24.851562 -19.378906 C 24.851562 -7.449219 21.886719 5.394531 16.71875 5.394531 L 16.566406 5.394531 C 11.171875 5.167969 8.816406 -4.105469 8.816406 -14.136719 C 8.816406 -26.21875 12.234375 -39.441406 17.707031 -39.441406 Z M 17.785156 -39.441406 "/></g></g></g><g fill="#000000" fill-opacity="1"><g transform="translate(334.813437, 616.251325)"><g><path d="M 25.382812 -54.414062 C 24.625 -59.355469 19.605469 -62.242188 14.667969 -62.242188 C 9.957031 -62.242188 5.242188 -59.582031 4.257812 -53.425781 C 3.039062 -46.128906 2.433594 -30.171875 2.433594 -13.832031 C 2.433594 5.851562 3.34375 25.992188 5.167969 31.765625 C 6.15625 34.882812 10.335938 37.238281 13.984375 37.238281 C 16.71875 37.238281 19.074219 35.945312 19.605469 32.601562 C 19.757812 31.386719 20.671875 7.449219 20.824219 6.230469 C 23.9375 7.066406 31.84375 8.285156 39.140625 23.101562 C 40.355469 25.609375 42.710938 27.132812 45.21875 27.132812 C 46.054688 27.132812 46.890625 26.902344 47.652344 26.597656 C 50.917969 25.230469 52.4375 23.636719 52.4375 21.203125 C 52.4375 20.292969 52.210938 19.304688 51.832031 18.164062 C 48.636719 8.359375 39.824219 3.875 39.519531 3.191406 C 48.488281 -1.0625 54.488281 -9.878906 55.554688 -24.394531 C 55.707031 -26.296875 55.78125 -28.117188 55.78125 -29.867188 C 55.78125 -46.511719 48.941406 -56.390625 35.945312 -57.984375 C 35.339844 -58.0625 34.808594 -58.0625 34.273438 -58.0625 C 30.855469 -58.0625 27.585938 -56.921875 25.382812 -54.414062 Z M 30.628906 -50.460938 C 31.539062 -50.765625 32.375 -50.84375 33.136719 -50.84375 C 40.355469 -50.84375 43.394531 -39.976562 43.394531 -29.105469 C 43.394531 -27.132812 43.320312 -25.15625 43.089844 -23.253906 C 41.949219 -11.929688 37.316406 0.152344 27.738281 0.152344 C 26.21875 0.152344 24.625 -0.152344 22.875 -0.761719 C 22.191406 -0.988281 21.886719 -1.367188 21.886719 -2.050781 L 21.886719 -2.433594 C 23.710938 -28.042969 24.394531 -42.863281 25.230469 -46.054688 C 25.914062 -48.5625 28.574219 -49.777344 30.628906 -50.460938 Z M 30.628906 -50.460938 "/></g></g></g><g fill="#000000" fill-opacity="1"><g transform="translate(392.038493, 616.251325)"><g><path d="M 45.828125 -49.777344 C 43.699219 -39.898438 41.875 3.496094 41.796875 3.570312 C 34.351562 -16.113281 28.574219 -32.449219 20.824219 -47.878906 C 18.46875 -52.589844 15.578125 -54.1875 12.996094 -54.1875 C 9.195312 -54.1875 5.929688 -50.765625 5.320312 -48.636719 C 3.191406 -41.039062 2.050781 -27.738281 2.050781 -14.136719 C 2.050781 0.761719 3.417969 16.035156 6.15625 25.003906 C 7.066406 28.574219 9.574219 30.703125 12.082031 30.703125 C 14.058594 30.703125 16.113281 29.335938 17.480469 26.21875 C 20.976562 17.933594 21.355469 -25.15625 21.660156 -27.28125 C 24.015625 -25.460938 33.972656 17.023438 46.433594 18.390625 L 47.042969 18.390625 C 57.984375 18.390625 61.253906 -16.414062 61.253906 -36.78125 C 61.253906 -42.863281 60.949219 -47.726562 60.492188 -49.929688 C 59.582031 -54.339844 56.3125 -56.769531 53.046875 -56.769531 C 50.007812 -56.769531 46.890625 -54.566406 45.828125 -49.777344 Z M 45.828125 -49.777344 "/></g></g></g><g fill="#000000" fill-opacity="1"><g transform="translate(455.571235, 616.251325)"><g><path d="M 15.425781 20.292969 C 16.261719 19 18.847656 -18.238281 18.847656 -39.289062 C 18.847656 -44.078125 18.695312 -48.03125 18.390625 -50.539062 C 17.933594 -53.652344 13.90625 -56.164062 10.03125 -56.164062 C 6.914062 -56.164062 3.953125 -54.566406 3.039062 -50.234375 C 2.433594 -45.75 2.203125 -39.59375 2.203125 -32.753906 C 2.203125 -10.335938 4.789062 19.226562 5.929688 20.824219 C 7.296875 22.570312 8.890625 23.332031 10.410156 23.332031 C 12.386719 23.332031 14.289062 22.117188 15.425781 20.292969 Z M 15.425781 20.292969 "/></g></g></g><g fill="#000000" fill-opacity="1"><g transform="translate(477.382117, 616.251325)"><g><path d="M 45.828125 -49.777344 C 43.699219 -39.898438 41.875 3.496094 41.796875 3.570312 C 34.351562 -16.113281 28.574219 -32.449219 20.824219 -47.878906 C 18.46875 -52.589844 15.578125 -54.1875 12.996094 -54.1875 C 9.195312 -54.1875 5.929688 -50.765625 5.320312 -48.636719 C 3.191406 -41.039062 2.050781 -27.738281 2.050781 -14.136719 C 2.050781 0.761719 3.417969 16.035156 6.15625 25.003906 C 7.066406 28.574219 9.574219 30.703125 12.082031 30.703125 C 14.058594 30.703125 16.113281 29.335938 17.480469 26.21875 C 20.976562 17.933594 21.355469 -25.15625 21.660156 -27.28125 C 24.015625 -25.460938 33.972656 17.023438 46.433594 18.390625 L 47.042969 18.390625 C 57.984375 18.390625 61.253906 -16.414062 61.253906 -36.78125 C 61.253906 -42.863281 60.949219 -47.726562 60.492188 -49.929688 C 59.582031 -54.339844 56.3125 -56.769531 53.046875 -56.769531 C 50.007812 -56.769531 46.890625 -54.566406 45.828125 -49.777344 Z M 45.828125 -49.777344 "/></g></g></g><g fill="#000000" fill-opacity="1"><g transform="translate(540.914859, 616.251325)"><g><path d="M 40.660156 -15.125 C 41.039062 -15.125 41.496094 -15.046875 41.875 -15.046875 C 44.382812 -15.046875 46.964844 -15.882812 48.714844 -20.671875 C 49.929688 -23.863281 50.691406 -28.195312 50.691406 -32.679688 C 50.691406 -44.535156 45.292969 -57.910156 27.511719 -57.910156 L 27.207031 -57.910156 C 19.226562 -57.910156 12.082031 -54.71875 6.914062 -45.523438 C 3.722656 -39.824219 1.597656 -28.804688 1.597656 -16.949219 C 1.597656 4.636719 8.511719 29.03125 28.042969 29.03125 L 29.257812 29.03125 C 41.496094 28.421875 48.789062 16.035156 49.246094 4.636719 L 49.246094 4.179688 C 49.246094 -1.519531 45.371094 -5.394531 39.671875 -5.394531 C 37.847656 -5.394531 35.945312 -5.015625 33.894531 -4.179688 C 32.222656 -3.496094 30.550781 -1.214844 30.550781 0.835938 C 30.550781 2.8125 32.070312 4.636719 36.328125 4.710938 C 37.238281 4.710938 37.695312 6.230469 37.695312 8.359375 C 37.695312 13.90625 34.578125 23.9375 28.953125 24.472656 L 28.421875 24.472656 C 19.988281 24.472656 16.1875 7.066406 16.1875 -10.945312 C 16.1875 -30.171875 20.519531 -50.007812 28.5 -50.007812 L 28.574219 -50.007812 C 34.578125 -49.929688 35.109375 -42.710938 35.109375 -34.882812 L 35.109375 -29.410156 C 35.109375 -22.039062 35.566406 -15.425781 40.660156 -15.125 Z M 40.660156 -15.125 "/></g></g></g><g fill="#000000" fill-opacity="1"><g transform="translate(242.999392, 687.001449)"><g><path d="M 4.71875 -26.484375 C 4.644531 -26.117188 4.585938 -25.695312 4.546875 -25.21875 C 4.515625 -24.738281 4.472656 -24.207031 4.421875 -23.625 C 4.367188 -23.050781 4.34375 -22.582031 4.34375 -22.21875 L 2.953125 -22.109375 C 2.953125 -22.128906 2.921875 -22.535156 2.859375 -23.328125 C 2.796875 -24.128906 2.75 -25.171875 2.71875 -26.453125 Z M 9.140625 -26.484375 C 9.066406 -26.117188 9.007812 -25.695312 8.96875 -25.21875 C 8.9375 -24.738281 8.894531 -24.207031 8.84375 -23.625 C 8.789062 -23.050781 8.765625 -22.582031 8.765625 -22.21875 L 7.375 -22.109375 C 7.375 -22.128906 7.34375 -22.535156 7.28125 -23.328125 C 7.21875 -24.128906 7.171875 -25.171875 7.140625 -26.453125 Z M 9.140625 -26.484375 "/></g></g></g><g fill="#000000" fill-opacity="1"><g transform="translate(256.185285, 687.001449)"><g><path d="M 2.765625 0 L 2.765625 -25.796875 L 5.078125 -25.796875 L 5.078125 -13.890625 L 17.609375 -13.890625 L 17.609375 -25.796875 L 19.9375 -25.796875 L 19.9375 0 L 17.609375 0 L 17.609375 -11.671875 L 5.078125 -11.671875 L 5.078125 0 Z M 2.765625 0 "/></g></g></g><g fill="#000000" fill-opacity="1"><g transform="translate(278.873859, 687.001449)"><g><path d="M 17.765625 -6.8125 L 6.40625 -6.8125 L 4.046875 0 L 1.65625 0 L 10.984375 -25.796875 L 13.234375 -25.796875 L 22.875 0 L 20.1875 0 Z M 7.03125 -8.65625 L 17.09375 -8.65625 L 11.96875 -22.984375 Z M 7.03125 -8.65625 "/></g></g></g><g fill="#000000" fill-opacity="1"><g transform="translate(303.625025, 687.001449)"><g><path d="M 12.53125 -2.796875 L 20.296875 -25.796875 L 22.703125 -25.796875 L 13.5625 0 L 11.125 0 L 1.65625 -25.796875 L 4.15625 -25.796875 Z M 12.53125 -2.796875 "/></g></g></g><g fill="#000000" fill-opacity="1"><g transform="translate(328.08154, 687.001449)"><g><path d="M 16.171875 -23.578125 L 5.453125 -23.578125 L 5.453125 -13.890625 L 15.40625 -13.890625 L 15.21875 -11.671875 L 5.453125 -11.671875 L 5.453125 -2.203125 L 17.09375 -2.203125 L 16.90625 0 L 2.953125 0 L 2.953125 -25.796875 L 16.359375 -25.796875 Z M 16.171875 -23.578125 "/></g></g></g><g fill="#000000" fill-opacity="1"><g transform="translate(357.657718, 687.001449)"><g><path d="M 17.765625 -6.8125 L 6.40625 -6.8125 L 4.046875 0 L 1.65625 0 L 10.984375 -25.796875 L 13.234375 -25.796875 L 22.875 0 L 20.1875 0 Z M 7.03125 -8.65625 L 17.09375 -8.65625 L 11.96875 -22.984375 Z M 7.03125 -8.65625 "/></g></g></g><g fill="#000000" fill-opacity="1"><g transform="translate(393.421681, 687.001449)"><g><path d="M 19.484375 0 L 4.796875 -22.46875 L 4.96875 0 L 2.65625 0 L 2.65625 -25.796875 L 5.34375 -25.796875 L 20 -3.3125 L 19.859375 -25.796875 L 22.1875 -25.796875 L 22.1875 0 Z M 19.484375 0 "/></g></g></g><g fill="#000000" fill-opacity="1"><g transform="translate(418.28334, 687.001449)"><g><path d="M 9.5 0 L 2.578125 0 L 2.578125 -1.765625 L 4.796875 -2.03125 L 4.796875 -23.734375 L 2.765625 -23.984375 L 2.765625 -25.796875 L 9.328125 -25.796875 L 9.328125 -23.984375 L 7.296875 -23.734375 L 7.296875 -2.03125 L 9.5 -1.765625 Z M 9.5 0 "/></g></g></g><g fill="#000000" fill-opacity="1"><g transform="translate(431.100906, 687.001449)"><g><path d="M 18.125 -23.0625 C 16.875 -23.550781 15.5625 -23.796875 14.1875 -23.796875 C 11.40625 -23.796875 9.160156 -22.773438 7.453125 -20.734375 C 5.753906 -18.703125 4.90625 -15.71875 4.90625 -11.78125 C 4.90625 -7.851562 5.800781 -5.101562 7.59375 -3.53125 C 8.820312 -2.425781 10.53125 -1.875 12.71875 -1.875 C 14.113281 -1.875 15.515625 -2.035156 16.921875 -2.359375 C 18.335938 -2.679688 19.304688 -2.988281 19.828125 -3.28125 L 20.34375 -1.46875 C 19.257812 -0.757812 17.363281 -0.269531 14.65625 0 C 13.875 0.09375 13.046875 0.140625 12.171875 0.140625 C 11.304688 0.140625 10.28125 0 9.09375 -0.28125 C 7.914062 -0.5625 6.828125 -1.128906 5.828125 -1.984375 C 3.535156 -3.929688 2.390625 -7.160156 2.390625 -11.671875 C 2.390625 -16.191406 3.460938 -19.6875 5.609375 -22.15625 C 7.765625 -24.625 10.5625 -25.859375 14 -25.859375 C 15.914062 -25.859375 17.5625 -25.476562 18.9375 -24.71875 C 19.457031 -24.445312 19.863281 -24.15625 20.15625 -23.84375 L 20.15625 -18.5 L 18.3125 -18.390625 Z M 18.125 -23.0625 "/></g></g></g><g fill="#000000" fill-opacity="1"><g transform="translate(452.905492, 687.001449)"><g><path d="M 16.171875 -23.578125 L 5.453125 -23.578125 L 5.453125 -13.890625 L 15.40625 -13.890625 L 15.21875 -11.671875 L 5.453125 -11.671875 L 5.453125 -2.203125 L 17.09375 -2.203125 L 16.90625 0 L 2.953125 0 L 2.953125 -25.796875 L 16.359375 -25.796875 Z M 16.171875 -23.578125 "/></g></g></g><g fill="#000000" fill-opacity="1"><g transform="translate(482.481648, 687.001449)"><g><path d="M 2.953125 -25.796875 L 9.578125 -25.796875 C 14.734375 -25.796875 18.097656 -23.632812 19.671875 -19.3125 C 20.265625 -17.738281 20.5625 -15.664062 20.5625 -13.09375 C 20.5625 -10.53125 20.273438 -8.367188 19.703125 -6.609375 C 19.140625 -4.859375 18.34375 -3.488281 17.3125 -2.5 C 16.28125 -1.519531 15.035156 -0.859375 13.578125 -0.515625 C 12.117188 -0.171875 10.476562 0 8.65625 0 L 2.953125 0 Z M 5.453125 -23.765625 L 5.453125 -2.03125 L 8.46875 -2.03125 C 9.75 -2.03125 10.976562 -2.140625 12.15625 -2.359375 C 16.082031 -3.046875 18.046875 -6.691406 18.046875 -13.296875 C 18.046875 -17.003906 17.1875 -19.742188 15.46875 -21.515625 C 13.976562 -23.015625 11.953125 -23.765625 9.390625 -23.765625 Z M 5.453125 -23.765625 "/></g></g></g><g fill="#000000" fill-opacity="1"><g transform="translate(505.428058, 687.001449)"><g><path d="M 17.765625 -6.8125 L 6.40625 -6.8125 L 4.046875 0 L 1.65625 0 L 10.984375 -25.796875 L 13.234375 -25.796875 L 22.875 0 L 20.1875 0 Z M 7.03125 -8.65625 L 17.09375 -8.65625 L 11.96875 -22.984375 Z M 7.03125 -8.65625 "/></g></g></g><g fill="#000000" fill-opacity="1"><g transform="translate(530.179224, 687.001449)"><g><path d="M 12.3125 -10.71875 L 19.9375 -25.796875 L 22.515625 -25.796875 L 13.484375 -8.65625 L 13.484375 0 L 11.15625 0 L 11.15625 -8.6875 L 1.65625 -25.796875 L 4.34375 -25.796875 Z M 12.3125 -10.71875 "/></g></g></g><g fill="#000000" fill-opacity="1"><g transform="translate(554.341065, 687.001449)"><g><path d="M 4.71875 -26.484375 C 4.644531 -26.117188 4.585938 -25.695312 4.546875 -25.21875 C 4.515625 -24.738281 4.472656 -24.207031 4.421875 -23.625 C 4.367188 -23.050781 4.34375 -22.582031 4.34375 -22.21875 L 2.953125 -22.109375 C 2.953125 -22.128906 2.921875 -22.535156 2.859375 -23.328125 C 2.796875 -24.128906 2.75 -25.171875 2.71875 -26.453125 Z M 9.140625 -26.484375 C 9.066406 -26.117188 9.007812 -25.695312 8.96875 -25.21875 C 8.9375 -24.738281 8.894531 -24.207031 8.84375 -23.625 C 8.789062 -23.050781 8.765625 -22.582031 8.765625 -22.21875 L 7.375 -22.109375 C 7.375 -22.128906 7.34375 -22.535156 7.28125 -23.328125 C 7.21875 -24.128906 7.171875 -25.171875 7.140625 -26.453125 Z M 9.140625 -26.484375 "/></g></g></g></svg>